<?xml version="1.0" standalone="no"?>
<!DOCTYPE svg PUBLIC "-//W3C//DTD SVG 20010904//EN"
 "http://www.w3.org/TR/2001/REC-SVG-20010904/DTD/svg10.dtd">
<svg version="1.0" xmlns="http://www.w3.org/2000/svg"
 width="1500.000000pt" height="1500.000000pt" viewBox="0 0 1500.000000 1500.000000"
 preserveAspectRatio="xMidYMid meet">

<g transform="translate(0.000000,1500.000000) scale(0.100000,-0.100000)"
fill="#000000" stroke="none">
<path d="M0 7500 l0 -7500 7500 0 7500 0 0 7500 0 7500 -7500 0 -7500 0 0
-7500z m8779 1150 c75 -157 158 -333 185 -390 27 -58 78 -165 113 -238 35 -74
63 -136 63 -138 0 -2 -211 -4 -468 -4 l-468 0 -84 172 c-47 94 -91 173 -97
176 -10 3 -13 -36 -13 -172 l0 -176 -50 0 -50 0 0 284 0 284 -130 231 c-71
128 -130 236 -130 241 0 12 155 16 619 15 l375 0 135 -285z m-5849 270 c368
-34 628 -124 779 -271 73 -70 116 -145 141 -245 39 -152 21 -318 -48 -449
l-37 -70 -429 -3 c-395 -2 -428 -1 -422 14 18 46 28 281 17 412 -17 215 -60
342 -147 429 -85 84 -181 113 -380 113 l-124 0 0 -1358 0 -1357 120 -130 c66
-72 120 -136 120 -142 0 -10 -144 -13 -685 -13 -493 0 -685 3 -685 11 0 6 53
68 119 138 l118 126 5 1272 5 1272 -123 116 c-68 64 -124 123 -124 131 0 12
120 14 833 14 492 0 879 -4 947 -10z m2300 -3 c0 -8 -12 -24 -26 -38 -14 -13
-66 -67 -115 -120 l-89 -97 125 -386 c69 -212 125 -388 125 -391 0 -3 -204 -5
-452 -5 l-453 0 -178 513 c-98 281 -177 518 -177 525 0 19 1240 18 1240 -1z
m2410 6 c-1 -5 -81 -240 -178 -523 l-177 -515 -153 -3 c-83 -1 -152 -1 -152 2
0 2 -9 50 -21 107 -43 218 -134 446 -243 614 -59 91 -197 242 -252 276 -19 11
-34 27 -34 35 0 12 89 14 605 14 333 0 605 -3 605 -7z m3200 -6 c0 -7 -38 -64
-85 -127 l-84 -115 -1 -397 0 -398 -445 0 -445 0 -2 168 c-2 223 -1 216 -18
219 -11 2 -28 -30 -59 -110 -25 -61 -60 -149 -79 -194 l-34 -83 -63 0 -63 0
210 525 211 525 478 0 c381 0 479 -3 479 -13z m1610 3 c281 -26 511 -84 705
-180 360 -178 574 -467 655 -887 84 -438 19 -915 -173 -1258 -218 -390 -564
-623 -1067 -717 -110 -21 -148 -22 -837 -25 -537 -3 -723 -1 -723 7 0 7 56 66
125 132 l125 120 0 374 0 374 445 0 445 0 0 -460 0 -460 91 0 c394 0 572 233
639 839 30 269 30 933 0 1201 -39 357 -108 555 -240 694 -105 110 -220 160
-402 173 l-88 6 0 -487 0 -486 -445 0 -445 0 0 394 0 394 -125 120 c-69 66
-125 125 -125 131 0 15 1279 15 1440 1z m-5810 -656 c0 -9 -43 -70 -95 -134
l-95 -117 25 -63 c14 -35 25 -65 25 -67 0 -2 -188 -3 -419 -3 l-418 0 -22 67
c-26 80 -77 183 -126 255 -19 29 -35 58 -35 65 0 10 119 13 580 13 531 0 580
-1 580 -16z m850 -919 c0 -148 -1 -155 -20 -155 -19 0 -20 7 -20 155 0 148 1
155 20 155 19 0 20 -7 20 -155z m860 126 c0 -20 6 -30 20 -34 11 -3 20 -12 20
-21 0 -9 -8 -16 -20 -16 -25 0 -25 -8 1 -36 14 -15 19 -29 14 -44 -6 -20 -7
-21 -21 -3 -12 16 -13 9 -14 -54 0 -66 -2 -73 -20 -73 -18 0 -20 7 -20 63 l-1
62 -18 -34 c-17 -31 -19 -33 -25 -14 -4 11 2 38 14 64 25 56 25 69 0 69 -13 0
-20 7 -20 20 0 15 7 20 25 20 21 0 25 5 25 30 0 23 4 30 20 30 15 0 20 -7 20
-29z m580 -1 c0 -19 5 -30 14 -30 8 0 16 -8 18 -17 3 -12 10 -1 22 28 14 36
22 46 36 42 12 -3 16 -11 13 -24 -5 -17 0 -19 50 -19 31 0 58 -3 60 -7 2 -5 0
-57 -3 -117 -6 -90 -10 -111 -25 -122 -17 -13 -65 -20 -65 -10 0 2 -3 11 -6
20 -5 12 0 16 20 16 29 0 32 7 40 113 l5 67 -49 0 c-42 0 -52 -4 -67 -26 l-17
-26 -18 22 c-27 34 -34 16 -8 -20 17 -24 20 -34 11 -43 -9 -9 -14 -8 -21 3 -7
10 -10 -8 -10 -57 0 -66 -2 -73 -20 -73 -18 0 -20 7 -20 58 -1 47 -3 54 -12
37 -16 -30 -18 -31 -28 -15 -5 9 -2 27 9 49 33 64 35 81 12 81 -14 0 -21 6
-21 20 0 13 7 20 20 20 16 0 20 7 20 30 0 23 4 30 20 30 16 0 20 -7 20 -30z
m585 20 c3 -5 19 -10 35 -10 16 0 32 -5 36 -11 4 -8 13 -4 25 12 14 19 20 22
30 12 7 -7 32 -13 56 -13 32 0 43 -4 43 -15 0 -8 -9 -15 -19 -15 -10 0 -21 -7
-25 -15 -3 -8 -1 -15 4 -15 6 0 10 -26 10 -59 0 -52 -3 -60 -22 -66 -20 -7
-18 -9 15 -12 29 -3 37 -9 37 -24 0 -15 -7 -19 -35 -19 -31 0 -35 -3 -35 -25
0 -18 -5 -25 -20 -25 -15 0 -20 7 -20 25 0 22 -4 25 -35 25 -20 0 -49 -10 -71
-25 -43 -29 -48 -30 -63 -11 -10 12 -8 16 11 22 l23 8 -25 6 c-39 9 -31 34 13
38 38 3 53 22 17 22 -18 0 -20 7 -20 60 0 47 3 60 15 60 8 0 15 5 15 10 0 13
-13 13 -27 -1 -7 -7 -19 -9 -28 -6 -13 6 -13 11 7 42 23 35 41 44 53 25z m735
-15 c0 -21 5 -25 30 -25 23 0 30 -4 30 -20 0 -16 -7 -20 -30 -20 -23 0 -30 -5
-30 -19 0 -16 8 -20 37 -23 27 -2 39 -8 41 -20 3 -15 -4 -18 -45 -18 -47 0
-50 -2 -66 -35 -22 -46 -22 -45 13 -45 24 0 29 4 27 21 -1 12 3 24 10 26 15 5
67 -72 58 -86 -8 -14 -32 -14 -37 0 -3 8 -22 8 -68 1 -36 -5 -68 -8 -72 -5
-13 7 -9 40 6 52 8 7 19 25 25 42 10 28 9 29 -20 29 -22 0 -29 5 -29 20 0 17
7 20 40 20 33 0 40 3 40 20 0 16 -7 20 -35 20 -28 0 -35 4 -35 20 0 16 7 20
35 20 31 0 35 3 35 25 0 18 5 25 20 25 15 0 20 -7 20 -25z m540 5 c8 -15 23
-20 67 -22 46 -2 59 -7 61 -20 3 -15 -4 -18 -40 -18 l-43 0 39 -33 c24 -20 36
-38 32 -45 -12 -20 -30 -14 -64 21 -25 26 -29 36 -20 45 9 9 -11 12 -90 12
-95 0 -102 1 -102 20 0 18 7 20 61 20 49 0 60 3 56 14 -5 13 5 23 25 25 4 1
12 -8 18 -19z m-685 -2 c28 -12 30 -19 14 -35 -14 -14 -69 16 -62 34 6 16 15
16 48 1z m-1585 -124 c0 -81 4 -123 10 -119 6 3 10 15 10 26 0 10 5 19 11 19
6 0 9 -16 7 -37 -3 -36 -5 -38 -38 -38 l-35 0 -3 118 c-2 106 -4 117 -21 117
-16 0 -19 -11 -23 -83 -7 -101 -39 -180 -65 -155 -13 14 -13 19 3 49 12 24 19
64 22 132 l4 97 59 0 59 0 0 -126z m2950 61 l0 -65 -69 0 c-39 0 -73 -4 -76
-10 -4 -6 27 -10 86 -10 l91 0 -7 -47 c-9 -66 -29 -95 -62 -91 -32 4 -44 28
-14 28 24 0 28 6 32 44 6 43 -17 43 -39 -1 -25 -49 -53 -74 -71 -64 -10 7 -6
18 19 52 44 61 21 60 -39 -2 -44 -45 -52 -50 -66 -39 -15 12 -13 17 22 46 44
37 39 57 -7 24 -25 -18 -34 -20 -45 -10 -13 11 -10 17 22 46 21 18 32 33 26
34 -9 0 -13 20 -13 65 l0 65 105 0 105 0 0 -65z m-4880 29 c39 -16 66 -45 53
-58 -12 -12 -61 -6 -73 9 -7 9 -29 15 -55 15 -80 0 -122 -65 -77 -120 37 -46
172 -34 172 15 0 12 -15 15 -70 15 -56 0 -70 3 -70 15 0 12 18 15 105 15 l105
0 0 -65 c0 -63 -1 -65 -25 -65 -18 0 -25 5 -25 20 0 19 -1 20 -25 4 -66 -43
-171 -35 -221 17 -23 24 -29 39 -29 74 0 98 122 154 235 109z m-3210 -13 c0
-17 -8 -20 -47 -23 l-48 -3 -3 -92 -3 -93 -29 0 -29 0 -3 93 -3 92 -47 3 c-40
3 -48 6 -48 23 0 18 8 19 130 19 122 0 130 -1 130 -19z m540 1 c13 -11 23 -29
23 -45 0 -30 -28 -67 -50 -67 -9 0 -7 -10 9 -35 16 -24 29 -34 41 -31 11 3 17
-2 17 -14 0 -26 -46 -35 -76 -15 -13 8 -31 29 -39 45 -14 27 -20 30 -65 30
l-50 0 0 -40 c0 -39 -1 -40 -35 -40 l-35 0 0 115 0 115 119 0 c100 0 122 -3
141 -18z m563 -97 l57 -115 -33 0 c-26 0 -36 6 -45 25 -11 23 -17 25 -77 25
-60 0 -66 -2 -77 -25 -9 -19 -19 -25 -45 -25 l-33 0 57 115 58 115 40 0 40 0
58 -115z m583 96 c84 -51 60 -185 -37 -205 -18 -3 -71 -6 -120 -6 l-89 0 0
115 0 115 108 0 c87 0 113 -4 138 -19z m404 -96 l0 -115 -30 0 -30 0 0 115 0
115 30 0 30 0 0 -115z m456 33 l69 -82 3 82 3 82 29 0 30 0 0 -115 0 -115 -39
0 c-37 0 -44 5 -108 80 -37 44 -71 80 -75 80 -5 0 -8 -36 -8 -80 l0 -80 -30 0
-30 0 0 115 0 115 43 0 c43 0 46 -3 113 -82z m4184 2 c0 -18 -21 -21 -49 -9
-24 11 -28 17 -20 31 9 17 12 17 39 3 17 -9 30 -20 30 -25z m624 31 c6 -9 -58
-71 -72 -71 -11 0 -37 19 -32 22 3 2 20 16 38 31 34 28 57 34 66 18z m-1694
-26 c0 -9 -7 -29 -15 -45 -10 -20 -12 -30 -4 -30 6 0 13 9 16 20 8 30 30 24
42 -12 8 -22 8 -35 1 -42 -8 -8 -13 -7 -18 1 -5 8 -19 9 -47 3 -47 -11 -60 2
-39 40 7 14 18 37 24 53 10 29 40 38 40 12z m1720 -67 c0 -18 22 -6 38 22 19
33 20 34 42 20 12 -8 11 -13 -8 -39 -12 -17 -22 -35 -22 -40 0 -6 24 -18 54
-27 47 -15 53 -19 43 -34 -8 -15 -16 -16 -46 -8 -20 6 -47 16 -61 24 -23 13
-31 12 -85 -10 -43 -18 -63 -22 -72 -14 -17 13 -17 28 0 28 6 0 31 9 54 20
l43 19 -22 36 c-17 31 -19 38 -7 46 10 6 19 2 31 -14 10 -12 18 -25 18 -29z
m-655 -59 c-26 -51 -34 -56 -52 -38 -8 8 -3 24 19 61 24 39 33 46 44 37 11 -9
9 -19 -11 -60z m-6331 -876 c141 -268 256 -495 256 -505 0 -17 -29 -18 -640
-18 -478 0 -640 3 -640 12 0 6 52 64 115 128 63 64 115 119 115 122 0 3 -79
171 -175 373 -96 202 -175 369 -175 371 0 2 200 4 444 4 l444 0 256 -487z
m1836 478 c0 -6 -108 -247 -239 -538 -208 -457 -243 -528 -264 -534 -25 -7
-27 -2 -211 525 -102 293 -186 538 -186 544 0 9 109 12 450 12 276 0 450 -4
450 -9z m1317 -3 c-2 -7 -83 -242 -180 -523 -97 -280 -179 -517 -182 -526 -3
-10 -17 -19 -30 -21 -22 -5 -33 21 -234 521 -116 289 -213 534 -217 544 -6 16
18 17 421 17 338 0 426 -3 422 -12z m1268 -60 c42 -108 107 -242 162 -334 108
-179 303 -407 449 -526 35 -28 64 -57 64 -65 0 -11 -88 -13 -480 -13 l-480 0
0 505 0 505 128 0 129 0 28 -72z m971 55 c-4 -10 -46 -116 -94 -235 -117 -291
-102 -292 -250 10 -62 125 -112 230 -112 235 0 4 104 7 231 7 216 0 231 -1
225 -17z m1504 -488 l0 -505 -570 0 c-458 0 -570 3 -570 13 0 7 56 66 125 131
l125 117 0 375 0 374 445 0 445 0 0 -505z"/>
<path d="M9546 7435 c-4 -11 1 -15 19 -15 18 0 23 4 19 15 -4 8 -12 15 -19 15
-7 0 -15 -7 -19 -15z"/>
<path d="M9620 7435 c-11 -13 -9 -15 15 -15 16 0 25 5 23 12 -7 19 -24 20 -38
3z"/>
<path d="M9558 7393 c23 -2 59 -2 80 0 20 2 1 4 -43 4 -44 0 -61 -2 -37 -4z"/>
<path d="M9525 7360 c-4 -6 19 -10 64 -10 39 0 71 4 71 8 0 12 -128 14 -135 2z"/>
<path d="M9558 7323 c23 -2 59 -2 80 0 20 2 1 4 -43 4 -44 0 -61 -2 -37 -4z"/>
<path d="M9565 7290 c-4 -6 8 -10 29 -10 20 0 36 5 36 10 0 6 -13 10 -29 10
-17 0 -33 -4 -36 -10z"/>
<path d="M11300 7440 c0 -6 28 -10 65 -10 37 0 65 4 65 10 0 6 -28 10 -65 10
-37 0 -65 -4 -65 -10z"/>
<path d="M11300 7390 c0 -6 28 -10 65 -10 37 0 65 4 65 10 0 6 -28 10 -65 10
-37 0 -65 -4 -65 -10z"/>
<path d="M3730 7374 l0 -36 65 4 c72 4 96 18 79 46 -8 13 -28 18 -78 20 l-66
3 0 -37z"/>
<path d="M4362 7365 c-12 -25 -22 -48 -22 -50 0 -3 20 -5 45 -5 25 0 45 3 45
8 -1 4 -11 26 -23 50 l-23 43 -22 -46z"/>
<path d="M4890 7340 l0 -70 58 0 c72 0 102 18 102 63 0 18 -4 37 -8 44 -12 18
-59 33 -108 33 l-44 0 0 -70z"/>
</g>
</svg>
